<svg width="118" height="118" viewBox="0 0 118 118" fill="none" xmlns="http://www.w3.org/2000/svg">
<path d="M59 117.333C56.6389 117.333 54.6583 116.533 53.0583 114.933C51.4583 113.333 50.6611 111.356 50.6667 109V67.3333H8.99999C6.63888 67.3333 4.65832 66.5333 3.05832 64.9333C1.45832 63.3333 0.661099 61.3555 0.666655 59C0.666655 56.6389 1.46666 54.6583 3.06666 53.0583C4.66666 51.4583 6.64443 50.6611 8.99999 50.6667H50.6667V8.99999C50.6667 6.63888 51.4667 4.65832 53.0667 3.05832C54.6667 1.45832 56.6444 0.661099 59 0.666655C61.3611 0.666655 63.3417 1.46666 64.9417 3.06666C66.5417 4.66666 67.3389 6.64443 67.3333 8.99999V50.6667H109C111.361 50.6667 113.342 51.4667 114.942 53.0667C116.542 54.6667 117.339 56.6444 117.333 59C117.333 61.3611 116.533 63.3417 114.933 64.9417C113.333 66.5417 111.356 67.3389 109 67.3333H67.3333V109C67.3333 111.361 66.5333 113.342 64.9333 114.942C63.3333 116.542 61.3555 117.339 59 117.333Z" fill="#7983FF"/>
</svg>
