<svg width="168" height="168" viewBox="0 0 168 168" fill="none" xmlns="http://www.w3.org/2000/svg">
<path d="M152.5 0.666626H48.8334C40.6668 0.666626 34.0001 7.33329 34.0001 15.5V119.167C34.0001 127.333 40.6668 134 48.8334 134H152.5C160.667 134 167.333 127.417 167.333 119.167V15.5C167.333 7.33329 160.667 0.666626 152.5 0.666626ZM76.1668 109H59.0001V91.8333L109.5 41.3333L126.667 58.5L76.1668 109ZM139.833 45.25L131.5 53.5833L114.417 36.5L122.75 28.1666C124.5 26.3333 127.417 26.3333 129.167 28.1666L139.833 38.8333C141.667 40.5833 141.667 43.5 139.833 45.25ZM17.3334 34H0.666748V150.667C0.666748 155.087 2.42269 159.326 5.5483 162.452C8.67391 165.577 12.9131 167.333 17.3334 167.333H134V150.667H17.3334V34Z" fill="#717BFF"/>
</svg>
