<svg width="168" height="168" viewBox="0 0 168 168" fill="none" xmlns="http://www.w3.org/2000/svg">
<path d="M84 117.333C86.3611 117.333 88.3416 116.533 89.9416 114.933C91.5416 113.333 92.3389 111.356 92.3333 109V82.3333L99.8333 89.8333C101.361 91.3611 103.306 92.125 105.667 92.125C108.028 92.125 109.972 91.3611 111.5 89.8333C113.028 88.3055 113.792 86.3611 113.792 84C113.792 81.6389 113.028 79.6944 111.5 78.1666L89.8333 56.5C89 55.6666 88.0972 55.0777 87.125 54.7333C86.1527 54.3889 85.1111 54.2139 84 54.2083C82.8889 54.2083 81.8472 54.3833 80.875 54.7333C79.9027 55.0833 79 55.6722 78.1666 56.5L56.5 78.1666C54.9722 79.6944 54.2083 81.6389 54.2083 84C54.2083 86.3611 54.9722 88.3055 56.5 89.8333C58.0277 91.3611 59.9722 92.125 62.3333 92.125C64.6944 92.125 66.6389 91.3611 68.1666 89.8333L75.6666 82.3333V109C75.6666 111.361 76.4666 113.342 78.0666 114.942C79.6666 116.542 81.6444 117.339 84 117.333ZM84 167.333C72.4722 167.333 61.6389 165.144 51.5 160.767C41.3611 156.389 32.5416 150.453 25.0416 142.958C17.5416 135.458 11.6055 126.639 7.23329 116.5C2.86107 106.361 0.672182 95.5277 0.666626 84C0.666626 72.4722 2.85552 61.6389 7.23329 51.5C11.6111 41.3611 17.5472 32.5416 25.0416 25.0416C32.5416 17.5416 41.3611 11.6055 51.5 7.23329C61.6389 2.86107 72.4722 0.672182 84 0.666626C95.5277 0.666626 106.361 2.85552 116.5 7.23329C126.639 11.6111 135.458 17.5472 142.958 25.0416C150.458 32.5416 156.397 41.3611 160.775 51.5C165.153 61.6389 167.339 72.4722 167.333 84C167.333 95.5277 165.144 106.361 160.767 116.5C156.389 126.639 150.453 135.458 142.958 142.958C135.458 150.458 126.639 156.397 116.5 160.775C106.361 165.153 95.5277 167.339 84 167.333Z" fill="#717BFF"/>
</svg>
